<?xml version="1.0" encoding="utf-8"?>
<!-- Generator: Adobe Illustrator 17.0.0, SVG Export Plug-In . SVG Version: 6.00 Build 0)  -->
<!DOCTYPE svg PUBLIC "-//W3C//DTD SVG 1.1//EN" "http://www.w3.org/Graphics/SVG/1.1/DTD/svg11.dtd">
<svg version="1.1" xmlns="http://www.w3.org/2000/svg" xmlns:xlink="http://www.w3.org/1999/xlink" x="0px" y="0px"
	 width="3968.5px" height="425.2px" viewBox="0 0 3968.5 425.2" enable-background="new 0 0 3968.5 425.2" xml:space="preserve">
<g id="background">
</g>
<g id="text">
	<g>
		<path d="M929.2,227.467c-2.264-2.026-5.065-3.476-8.409-4.355c-3.343-0.879-7.21-1.319-11.6-1.319h-6.686v51.667
			c2.092,0.879,5.572,1.319,10.435,1.319c2.295,0,4.356-0.168,6.18-0.508c1.824-0.337,3.495-0.895,5.015-1.671
			s2.921-1.805,4.204-3.089c1.282-1.284,2.533-2.905,3.748-4.863c2.634-4.324,3.951-9.997,3.951-17.02
			c0-4.794-0.574-8.847-1.722-12.157C933.166,232.161,931.462,229.493,929.2,227.467z"/>
		<path d="M2495.683,158.274c-4.999,0-8.544,3.798-10.637,11.398c-2.095,7.597-3.14,23.318-3.14,47.159
			c0,21.951,0.912,37.5,2.735,46.652c1.823,9.152,5.807,13.728,11.954,13.728c5.268,0,8.829-3.681,10.689-11.044
			c1.856-7.36,2.785-23.504,2.785-48.425c0-23.637-0.998-39.46-2.988-47.462C2505.088,162.275,2501.288,158.274,2495.683,158.274z"
			/>
		<polygon points="1601.635,237.498 1634.966,237.498 1617.845,196.467 		"/>
		<path d="M0,0v425.2h3968.5V0H0z M344.497,268.296c-13.712,13.847-32.352,20.767-55.922,20.767c-16.143,0-30.41-3.41-42.803-10.231
			c-12.395-6.82-21.224-15.991-26.492-27.506s-7.902-22.911-7.902-34.192c0-12.36,3.444-24.415,10.333-36.166
			c6.889-11.752,16.225-20.447,28.012-26.086c11.785-5.639,24.398-8.46,37.839-8.46c24.178,0,43.14,6.975,56.885,20.919
			c13.743,13.948,20.616,31.052,20.616,51.314C365.063,237.903,358.207,254.449,344.497,268.296z M516.722,285.01h-11.245
			c-1.284-5.471-3.208-9.86-5.775-13.17c-11.414,11.484-26.477,17.222-45.184,17.222c-21.275,0-38.295-6.954-51.06-20.87
			c-12.765-13.912-19.147-30.424-19.147-49.538c0-18.844,6.315-35.593,18.945-50.25c12.628-14.655,30.089-21.984,52.377-21.984
			c16.681,0,30.831,5.505,42.448,16.513c1.553-3.445,2.971-7.53,4.255-12.258h11.144l1.418,50.756h-11.144
			c-3.31-13.778-8.73-24.196-16.26-31.254c-7.532-7.056-16.463-10.586-26.796-10.586c-11.888,0-20.836,4.66-26.847,13.981
			c-6.012,9.32-9.016,23.876-9.016,43.665c0,13.912,1.079,24.938,3.242,33.076c2.161,8.139,6.433,14.405,12.816,18.794
			s13.356,6.583,20.92,6.583c9.995,0,18.91-3.476,26.745-10.433c7.834-6.958,13.474-17.559,16.919-31.811h11.245V285.01z
			 M660.58,286.226H534.957v-11.244h2.533c6.821,0,11.261-1.269,13.322-3.8c2.06-2.534,3.09-6.87,3.09-13.017v-81.453
			c0-6.281-1.064-10.653-3.191-13.119c-2.128-2.466-6.534-3.699-13.221-3.699h-2.533v-11.043h117.011l2.026,35.559h-11.347
			c-2.026-6.213-4.29-11.16-6.788-14.842c-2.499-3.68-5.015-6.043-7.547-7.092c-2.533-1.046-6.805-1.57-12.816-1.57h-25.631v47.413
			h12.765c6.078,0,10.114-1.147,12.106-3.445c1.991-2.297,3.123-6.821,3.394-13.576h11.448v46.603h-11.448
			c0.066-0.879,0.101-1.521,0.101-1.926c0-3.915-0.828-7.463-2.482-10.636c-1.656-3.173-5.893-4.763-12.714-4.763h-13.17v33.94
			c0,6.484,0.37,10.723,1.114,12.712c0.743,1.995,2.735,3.647,5.977,4.966c3.242,1.315,8.171,1.976,14.791,1.976
			c8.981,0,15.584-1.116,19.806-3.345c4.22-2.229,8.003-6.144,11.347-11.752c3.343-5.605,5.757-11.58,7.244-17.93h11.347
			L660.58,286.226z M838.579,160.098c-7.294,0-12.141,1.114-14.538,3.343c-2.398,2.229-3.596,6.721-3.596,13.474v81.25
			c0,6.552,1.148,10.991,3.444,13.32c2.295,2.332,7.193,3.497,14.69,3.497v11.244h-71.423v-11.244
			c7.092,0,11.767-1.181,14.031-3.547c2.262-2.363,3.394-6.786,3.394-13.27v-37.79h-56.429v37.79c0,6.415,1.114,10.823,3.343,13.22
			c2.229,2.397,7.024,3.597,14.386,3.597v11.244h-71.625v-11.244c7.226,0,12.039-1.132,14.436-3.395
			c2.396-2.263,3.596-6.736,3.596-13.423v-81.25c0-6.484-1.132-10.907-3.394-13.271c-2.264-2.363-7.142-3.546-14.639-3.546v-11.245
			h71.625v11.245c-7.159,0-11.904,1.164-14.234,3.496c-2.33,2.328-3.495,6.771-3.495,13.321v30.799h56.429v-30.799
			c0-6.348-1.099-10.739-3.292-13.17c-2.195-2.431-6.906-3.647-14.133-3.647v-11.245h71.423V160.098z M972.104,262.267
			c-1.824,4.355-4.458,8.223-7.902,11.599c-3.445,3.379-7.649,6.147-12.613,8.307c-4.964,2.163-10.587,3.547-16.868,4.155
			c-3.85,0.337-8.444,0.608-13.778,0.81c-5.336,0.203-11.483,0.302-18.438,0.302c-9.32,0-18.59-0.084-27.809-0.253
			s-18.524-0.489-27.911-0.963v-11.244h3.343c3.308,0,6.028-0.287,8.155-0.863c2.128-0.57,3.799-1.518,5.015-2.837
			c1.216-1.315,2.06-3.039,2.533-5.165c0.471-2.129,0.709-4.779,0.709-7.952v-81.25c0-3.039-0.203-5.639-0.608-7.801
			c-0.405-2.16-1.2-3.9-2.381-5.218c-1.182-1.315-2.854-2.279-5.015-2.887c-2.163-0.608-4.964-0.912-8.409-0.912h-2.431v-11.245
			h74.462v11.245h-3.141c-3.445,0-6.248,0.288-8.409,0.862c-2.163,0.574-3.85,1.518-5.065,2.837
			c-1.216,1.315-2.026,3.056-2.431,5.217c-0.405,2.162-0.608,4.796-0.608,7.902v32.722h10.131c6.889,0,13.052,0.221,18.489,0.658
			c5.436,0.443,10.298,1.234,14.588,2.382c4.288,1.15,8.105,2.737,11.448,4.763c3.343,2.026,6.433,4.66,9.27,7.902
			c5.605,6.415,8.409,14.115,8.409,23.098C974.839,253.302,973.927,257.909,972.104,262.267z M1049.582,239.518h-59.873v-27.353
			h59.873V239.518z M1174.974,255.176c-1.859,4.897-4.407,9.202-7.649,12.918c-3.242,3.716-7.058,6.905-11.448,9.573
			c-4.391,2.668-9.135,4.847-14.234,6.534c-5.1,1.69-10.435,2.921-16.007,3.697c-5.572,0.776-11.128,1.166-16.665,1.166
			c-8.51,0-16.093-0.505-22.744-1.518c-6.653-1.013-12.258-2.431-16.817-4.255s-8.021-4.037-10.384-6.637
			c-2.365-2.6-3.546-5.486-3.546-8.663c0-4.118,1.35-7.344,4.052-9.676c2.7-2.329,6.72-3.494,12.056-3.494
			c4.187,0,7.598,0.898,10.232,2.684c2.634,1.792,5.065,4.476,7.294,8.055c2.229,3.647,5.081,6.216,8.561,7.699
			c3.478,1.487,7.986,2.229,13.525,2.229c3.174,0,6.315-0.608,9.422-1.824c3.105-1.216,5.876-3.089,8.307-5.623
			c2.431-2.531,4.39-5.789,5.876-9.775c1.484-3.984,2.229-8.778,2.229-14.386c0-8.644-1.352-15.296-4.052-19.956
			c-2.702-4.66-6.957-6.992-12.765-6.992c-3.986,0-7.97,1.555-11.954,4.66c-3.176,2.5-6.078,3.75-8.713,3.75
			c-1.081,0-2.077-0.203-2.989-0.608c-0.912-0.405-1.689-0.929-2.33-1.571c-0.643-0.642-1.149-1.35-1.52-2.129
			c-0.372-0.773-0.557-1.499-0.557-2.176c0-0.879,0.135-1.636,0.405-2.282c0.269-0.639,0.811-1.297,1.621-1.973
			c0.81-0.676,1.991-1.434,3.546-2.282c1.553-0.842,3.612-1.905,6.18-3.189c5.74-2.837,10.62-5.556,14.639-8.157
			c4.017-2.598,7.277-5.182,9.776-7.749c2.498-2.565,4.321-5.15,5.471-7.749c1.148-2.6,1.722-5.319,1.722-8.156
			c0-3.106-0.491-5.775-1.469-8.003c-0.979-2.229-2.33-4.068-4.052-5.521c-1.722-1.453-3.816-2.516-6.281-3.192
			c-2.466-0.675-5.151-1.013-8.054-1.013c-3.715,0-7.092,0.304-10.131,0.912s-5.658,1.487-7.851,2.634
			c-2.195,1.149-3.9,2.517-5.116,4.104c-1.216,1.587-1.823,3.326-1.823,5.217c0,1.082,0.253,2.078,0.76,2.988
			c0.507,0.913,1.064,1.791,1.672,2.634c0.608,0.846,1.165,1.724,1.672,2.634c0.507,0.913,0.76,1.944,0.76,3.091
			c0,0.946-0.27,1.909-0.811,2.888c-0.542,0.979-1.435,1.908-2.685,2.785c-1.251,0.879-2.887,1.588-4.914,2.128
			c-2.026,0.541-4.493,0.81-7.396,0.81c-3.378,0-6.164-0.507-8.358-1.52c-2.195-1.013-3.935-2.262-5.217-3.748
			c-1.284-1.485-2.163-3.055-2.634-4.71c-0.473-1.655-0.709-3.123-0.709-4.408c0-4.794,1.418-9.151,4.255-13.069
			c2.837-3.917,6.788-7.243,11.853-9.98c5.065-2.734,11.093-4.844,18.084-6.331c6.99-1.485,14.639-2.229,22.946-2.229
			c9.32,0,17.307,0.658,23.959,1.976c6.651,1.315,12.071,3.19,16.26,5.622c4.187,2.431,7.259,5.369,9.219,8.814
			c1.958,3.445,2.938,7.294,2.938,11.549c0,4.121-1.03,7.869-3.09,11.245c-2.061,3.378-4.797,6.35-8.206,8.915
			c-3.411,2.567-7.294,4.729-11.651,6.484c-4.356,1.757-8.831,3.109-13.423,4.053c5.537-0.069,10.823,0.44,15.855,1.518
			c5.031,1.082,9.472,2.94,13.322,5.574s6.905,6.128,9.168,10.483c2.262,4.358,3.394,9.71,3.394,16.06
			C1177.76,244.792,1176.832,250.279,1174.974,255.176z M1354.544,160.098c-7.294,0-12.157,1.114-14.589,3.343
			c-2.365,2.229-3.546,6.721-3.546,13.474v81.25c0,6.618,1.148,11.075,3.444,13.373c2.295,2.297,7.193,3.445,14.69,3.445v11.244
			h-71.423v-11.244c7.092,0,11.752-1.181,13.981-3.547c2.295-2.294,3.444-6.718,3.444-13.27v-64.737l-56.429,67.065
			c0.337,5.268,1.452,8.915,3.343,10.941c2.229,2.366,7.024,3.547,14.386,3.547v11.244h-71.625v-11.244
			c7.226,0,12.021-1.116,14.386-3.345c2.431-2.294,3.647-6.786,3.647-13.473v-81.25c0-6.551-1.15-10.974-3.444-13.271
			c-2.229-2.363-7.092-3.546-14.588-3.546v-11.245h71.625v11.245c-7.159,0-11.921,1.183-14.285,3.546
			c-2.297,2.297-3.444,6.721-3.444,13.271v64.028l56.328-67.067c-0.27-4.66-1.352-8.036-3.242-10.131
			c-2.162-2.431-6.855-3.647-14.082-3.647v-11.245h71.423V160.098z M1559.896,286.226h-74.766v-11.244h2.735
			c6.821,0,11.261-1.269,13.322-3.8c2.06-2.534,3.09-6.87,3.09-13.017v-80.744l-50.857,108.805h-7.902l-51.06-107.082v71.017
			c0,6.35,0.439,11.029,1.317,14.031c0.877,3.008,2.921,5.558,6.129,7.65c3.207,2.095,7.107,3.142,11.701,3.142v11.244h-49.439
			v-11.244c4.321,0,8.07-1.132,11.245-3.395c3.174-2.263,5.116-4.863,5.825-7.802c0.709-2.936,1.064-7.646,1.064-14.13v-72.234
			c0-6.889-1.2-11.499-3.596-13.828c-2.398-2.332-7.244-3.496-14.538-3.496v-11.245h55.01l42.347,90.267l42.752-90.267h55.213
			v11.245h-2.735c-6.889,0-11.364,1.267-13.423,3.798c-2.061,2.534-3.09,6.873-3.09,13.019v81.25c0,6.281,1.064,10.655,3.191,13.117
			c2.127,2.469,6.568,3.7,13.322,3.7h3.141V286.226z M1701.121,286.226h-68.181v-11.244c6.145,0,9.962-0.592,11.448-1.774
			c1.485-1.181,2.229-2.684,2.229-4.507c0-1.621-0.608-3.75-1.824-6.384l-1.317-3.139l-3.951-10.031h-42.246l-2.634,6.789
			c-1.891,4.794-2.837,8.173-2.837,10.131c0,3.31,1.115,5.62,3.343,6.939c2.229,1.315,5.876,1.976,10.941,1.976v11.244h-45.386
			v-11.244c8.645,0,15.905-7.363,21.781-22.085l42.246-106.476h11.853l43.056,106.373c4.255,10.536,8.105,16.867,11.549,18.996
			c3.444,2.126,6.753,3.192,9.928,3.192V286.226z M1845.587,294.533h-10.739c0.405-1.418,0.608-2.703,0.608-3.85
			c0-1.958-0.507-3.192-1.52-3.697c-1.013-0.508-3.039-0.761-6.078-0.761h-67.066v-9.623c36.471-33.161,54.707-63.656,54.707-91.482
			c0-7.902-1.656-14.216-4.964-18.945c-3.31-4.727-7.735-7.092-13.271-7.092c-4.525,0-8.393,1.605-11.6,4.811
			c-3.208,3.209-4.812,6.908-4.812,11.094c0,4.931,1.249,9.253,3.748,12.967c0.54,0.81,0.811,1.418,0.811,1.824
			c0,0.743-0.811,1.418-2.431,2.026c-1.081,0.405-3.816,1.554-8.206,3.445c-4.255,1.892-6.889,2.837-7.902,2.837
			c-1.216,0-2.601-1.873-4.154-5.623c-1.555-3.747-2.33-7.782-2.33-12.106c0-9.86,4.306-17.932,12.917-24.213
			c8.611-6.281,19.264-9.422,31.963-9.422c12.494,0,22.98,3.393,31.456,10.182c8.475,6.786,12.714,15.651,12.714,26.593
			c0,6.484-1.435,12.765-4.306,18.843c-2.872,6.078-9.743,15.448-20.616,28.113c-10.875,12.662-21.477,24.364-31.811,35.103h58.05
			L1845.587,294.533z M1951.707,271.385c-8.814,11.852-20.38,17.78-34.698,17.78c-10.131,0-19.031-3.173-26.695-9.523
			c-7.666-6.35-13.17-14.504-16.513-24.467c-3.343-9.963-5.015-22.812-5.015-38.547c0-22.828,4.458-40.186,13.373-52.073
			c8.915-11.886,20.498-17.83,34.749-17.83c13.844,0,25.31,5.876,34.394,17.628c9.083,11.752,13.626,28.84,13.626,51.263
			C1964.928,240.943,1960.521,259.53,1951.707,271.385z M2064.717,286.226h-67.877v-11.244h5.065c4.187,0,7.328-0.711,9.422-2.129
			c2.092-1.418,3.141-4.794,3.141-10.131v-76.994c0-7.294-0.979-11.819-2.938-13.575c-1.96-1.755-7.497-2.634-16.615-2.634v-10.84
			c17.762-0.742,31.71-4.829,41.84-12.258h10.739v115.694c0,4.66,0.76,7.971,2.28,9.928c1.52,1.961,4.812,2.94,9.878,2.94h5.065
			V286.226z M2168.356,275.74c-11.212,8.953-24.517,13.426-39.916,13.426c-10.672,0-19.519-2.079-26.543-6.231
			c-7.025-4.155-10.536-9.271-10.536-15.349c0-3.242,1.249-6.029,3.749-8.357c2.498-2.332,5.369-3.494,8.611-3.494
			c5.132,0,9.455,3.513,12.968,10.536c3.713,7.363,8.779,11.041,15.196,11.041c6.213,0,10.891-2.65,14.031-7.952
			c3.141-5.302,4.711-15.517,4.711-30.645c0-11.82-1.454-20.143-4.356-24.975c-2.904-4.825-7.564-7.241-13.98-7.241
			c-6.823,0-12.056,3.513-15.703,10.536h-12.765l2.33-68.587h68.586c-3.107,7.768-5.589,13.22-7.446,16.362
			c-1.858,3.139-3.277,4.727-4.255,4.76c-0.979,0.036-4.002,0.051-9.067,0.051h-37.383l-0.912,32.419
			c6.753-5.538,14.857-8.307,24.314-8.307c11.684,0,22.136,3.968,31.355,11.902c9.219,7.939,13.829,18.965,13.829,33.08
			C2185.173,254.449,2179.566,266.793,2168.356,275.74z M2240.69,289.165h-28.873l73.347-142.441h28.872L2240.69,289.165z
			 M2424.667,294.533h-10.739c0.405-1.418,0.608-2.703,0.608-3.85c0-1.958-0.507-3.192-1.52-3.697
			c-1.013-0.508-3.039-0.761-6.078-0.761h-67.066v-9.623c36.471-33.161,54.707-63.656,54.707-91.482
			c0-7.902-1.655-14.216-4.964-18.945c-3.31-4.727-7.734-7.092-13.271-7.092c-4.526,0-8.393,1.605-11.599,4.811
			c-3.209,3.209-4.813,6.908-4.813,11.094c0,4.931,1.249,9.253,3.749,12.967c0.539,0.81,0.81,1.418,0.81,1.824
			c0,0.743-0.81,1.418-2.431,2.026c-1.082,0.405-3.817,1.554-8.206,3.445c-4.255,1.892-6.889,2.837-7.902,2.837
			c-1.216,0-2.601-1.873-4.154-5.623c-1.554-3.747-2.33-7.782-2.33-12.106c0-9.86,4.305-17.932,12.918-24.213
			c8.61-6.281,19.264-9.422,31.962-9.422c12.494,0,22.98,3.393,31.457,10.182c8.474,6.786,12.713,15.651,12.713,26.593
			c0,6.484-1.436,12.765-4.306,18.843c-2.871,6.078-9.743,15.448-20.615,28.113c-10.875,12.662-21.478,24.364-31.811,35.103h58.05
			L2424.667,294.533z M2530.787,271.385c-8.815,11.852-20.382,17.78-34.699,17.78c-10.131,0-19.031-3.173-26.694-9.523
			c-7.667-6.35-13.17-14.504-16.515-24.467c-3.342-9.963-5.014-22.812-5.014-38.547c0-22.828,4.458-40.186,13.373-52.073
			c8.915-11.886,20.497-17.83,34.749-17.83c13.845,0,25.31,5.876,34.395,17.628c9.082,11.752,13.625,28.84,13.625,51.263
			C2544.007,240.943,2539.6,259.53,2530.787,271.385z M2643.798,286.226h-67.877v-11.244h5.065c4.186,0,7.327-0.711,9.422-2.129
			c2.093-1.418,3.141-4.794,3.141-10.131v-76.994c0-7.294-0.98-11.819-2.938-13.575c-1.959-1.755-7.497-2.634-16.615-2.634v-10.84
			c17.762-0.742,31.71-4.829,41.841-12.258h10.739v115.694c0,4.66,0.76,7.971,2.279,9.928c1.521,1.961,4.813,2.94,9.878,2.94h5.065
			V286.226z M2755.844,277.058c-9.658,8.07-20.262,12.107-31.811,12.107c-13.441,0-24.838-5.199-34.191-15.602
			c-9.356-10.402-14.032-25.227-14.032-44.476c0-14.249,2.363-27.859,7.092-40.827c4.727-12.968,12.36-23.131,22.896-30.494
			c10.536-7.361,21.848-11.043,33.938-11.043c7.833,0,14.386,1.569,19.654,4.712c5.268,3.139,7.902,6.973,7.902,11.498
			c0,2.972-1.132,5.69-3.395,8.156c-2.263,2.466-5.048,3.697-8.357,3.697c-4.39,0-8.712-3.106-12.967-9.32
			c-3.039-4.322-6.822-6.484-11.347-6.484c-5.809,0-10.452,3.716-13.931,11.144c-3.479,7.43-5.792,18.574-6.939,33.432
			c5.807-3.173,12.056-4.762,18.742-4.762c11.144,0,20.801,3.699,28.974,11.092c8.172,7.397,12.258,18.086,12.258,32.067
			C2770.331,257.286,2765.5,268.988,2755.844,277.058z"/>
		<path d="M287.967,159.692c-11.483,0-20.059,4.492-25.732,13.474c-5.673,8.984-8.51,23.268-8.51,42.854
			c0,21.141,2.837,36.387,8.51,45.738c5.673,9.358,14.115,14.034,25.327,14.034c11.684,0,20.498-4.271,26.442-12.818
			c5.942-8.541,8.915-23.519,8.915-44.928c0-19.586-2.786-34.209-8.358-43.867C308.989,164.522,300.124,159.692,287.967,159.692z"/>
		<path d="M1916.604,158.274c-4.999,0-8.545,3.798-10.637,11.398c-2.094,7.597-3.141,23.318-3.141,47.159
			c0,21.951,0.912,37.5,2.735,46.652c1.824,9.152,5.808,13.728,11.954,13.728c5.268,0,8.829-3.681,10.688-11.044
			c1.857-7.36,2.786-23.504,2.786-48.425c0-23.637-0.997-39.46-2.989-47.462C1926.009,162.275,1922.209,158.274,1916.604,158.274z"
			/>
		<path d="M2722.209,210.347c-3.108,0-5.774,1.113-8.003,3.342c-2.229,2.229-3.733,5.153-4.508,8.762
			c-0.778,3.616-1.166,10.589-1.166,20.923c0,12.157,1.216,20.919,3.647,26.287c2.431,5.371,6.247,8.055,11.448,8.055
			c4.525,0,7.816-2.092,9.877-6.281c2.06-4.186,3.091-12.123,3.091-23.806c0-15.602-1.233-25.717-3.698-30.343
			C2730.431,212.66,2726.869,210.347,2722.209,210.347z"/>
	</g>
</g>
</svg>
