<?xml version="1.0" encoding="utf-8"?>
<!-- Generator: Adobe Illustrator 17.0.0, SVG Export Plug-In . SVG Version: 6.00 Build 0)  -->
<!DOCTYPE svg PUBLIC "-//W3C//DTD SVG 1.1//EN" "http://www.w3.org/Graphics/SVG/1.1/DTD/svg11.dtd">
<svg version="1.1" id="Layer_1" xmlns="http://www.w3.org/2000/svg" xmlns:xlink="http://www.w3.org/1999/xlink" x="0px" y="0px"
	 width="62.36px" height="22.68px" viewBox="0 0 62.36 22.68" enable-background="new 0 0 62.36 22.68" xml:space="preserve">
<g>
	<path d="M2.825,1.443H5.52l6.11,14.795h0.124l5.997-14.795H20.4v19.28h-2.649V4.931h-0.09l-6.437,15.792h-0.541L4.167,5.041H3.986
		v15.681H2.825V1.443z"/>
	<path d="M26.373,1.443h2.638v12.511c0,0.822,0.114,1.594,0.344,2.319c0.229,0.724,0.558,1.359,0.987,1.903
		c0.428,0.545,0.943,0.974,1.544,1.287c0.601,0.314,1.274,0.47,2.018,0.47c0.751,0,1.427-0.157,2.029-0.47
		c0.601-0.314,1.112-0.742,1.533-1.287c0.421-0.544,0.744-1.178,0.969-1.903c0.226-0.724,0.338-1.497,0.338-2.319V1.443h1.161
		v12.511c0,0.988-0.129,1.917-0.388,2.789c-0.259,0.872-0.667,1.638-1.223,2.298s-1.268,1.181-2.137,1.564
		c-0.867,0.383-1.911,0.574-3.128,0.574c-1.083,0-2.04-0.191-2.874-0.574c-0.835-0.383-1.533-0.907-2.097-1.571
		c-0.564-0.664-0.99-1.439-1.279-2.325c-0.29-0.886-0.434-1.828-0.434-2.824V1.443z"/>
	<path d="M52.209,1l7.395,19.723h-2.683l-2.401-6.436h-6.73l-2.48,6.436h-1.319L51.556,1H52.209z M48.252,13.041h5.783l-2.852-7.626
		L48.252,13.041z"/>
</g>
</svg>
